<?xml version="1.0"?>
<svg xmlns="http://www.w3.org/2000/svg" viewBox="0 0 50 50">
    <path style="text-indent:0;text-align:start;line-height:normal;text-transform:none;block-progression:tb;-inkscape-font-specification:Sans" d="M 21 2 C 16.593562 2 13 5.593562 13 10 C 13 12.953582 14.610168 15.52337 17 16.90625 L 17 32.34375 L 11.84375 27.15625 C 10.28984 25.60234 7.7414101 25.60234 6.1875 27.15625 C 4.6335899 28.71016 4.6335899 31.25859 6.1875 32.8125 L 17.53125 44.1875 C 19.96845 46.6247 23.272128 47.998917 26.71875 48 L 34 48 C 38.958365 48 43 43.958516 43 39 L 43 26 C 43 23.802666 41.197334 22 39 22 C 38.167542 22 37.392608 22.246598 36.75 22.6875 C 36.202958 21.127938 34.738531 20 33 20 C 32.011734 20 31.138002 20.398805 30.4375 21 C 29.740611 19.814815 28.464889 19 27 19 C 26.267555 19 25.592593 19.214056 25 19.5625 L 25 16.90625 C 27.389972 15.5232 29 12.952784 29 10 C 29 5.593562 25.406438 2 21 2 z M 21 4 C 24.325562 4 27 6.674438 27 10 C 27 11.782934 26.23218 13.37583 25 14.46875 L 25 10 C 25 7.8026661 23.197334 6 21 6 C 18.802666 6 17 7.8026661 17 10 L 17 14.46875 C 15.767794 13.376085 15 11.783781 15 10 C 15 6.674438 17.674438 4 21 4 z M 21 8 C 22.116666 8 23 8.8833339 23 10 L 23 16.1875 A 1.0063276 1.0063276 0 0 0 23 16.5 L 23 25 A 1.0001 1.0001 0 0 0 24.21875 26 A 1.0001 1.0001 0 0 0 24.5 25.875 A 1.0001 1.0001 0 0 0 24.5625 25.84375 A 1.0001 1.0001 0 0 0 24.71875 25.6875 A 1.0001 1.0001 0 0 0 25 25 L 25 23 C 25 21.883334 25.883334 21 27 21 C 28.116666 21 29 21.883334 29 23 L 29 25 A 1.0001 1.0001 0 0 0 29.03125 25.1875 A 1.0001 1.0001 0 0 0 29.125 25.46875 A 1.0001 1.0001 0 0 0 29.28125 25.71875 A 1.0001 1.0001 0 0 0 29.4375 25.84375 A 1.0001 1.0001 0 0 0 29.53125 25.90625 A 1.0001 1.0001 0 0 0 29.8125 26 A 1.0001 1.0001 0 0 0 30.21875 26 A 1.0001 1.0001 0 0 0 30.5 25.875 A 1.0001 1.0001 0 0 0 30.5625 25.84375 A 1.0001 1.0001 0 0 0 30.71875 25.6875 A 1.0001 1.0001 0 0 0 31 25 L 31 24 C 31 22.883334 31.883334 22 33 22 C 34.116666 22 35 22.883334 35 24 L 35 26 A 1.0001 1.0001 0 0 0 35 26.09375 L 35 27 A 1.0001 1.0001 0 1 0 37 27 L 37 26.15625 A 1.0001 1.0001 0 0 0 37 26 C 37 24.883334 37.883334 24 39 24 C 40.116666 24 41 24.883334 41 26 L 41 39 C 41 42.877484 37.877635 46 34 46 L 26.71875 46 C 23.801372 45.999083 21.0003 44.84405 18.9375 42.78125 L 7.59375 31.40625 C 6.8036601 30.61616 6.8036601 29.38384 7.59375 28.59375 C 8.3838399 27.80366 9.6161601 27.80366 10.40625 28.59375 L 17.15625 35.3125 A 1.0001 1.0001 0 0 0 17.28125 35.46875 A 1.0054782 1.0054782 0 0 0 17.34375 35.53125 A 1.0001 1.0001 0 0 0 17.8125 35.75 A 1.0054782 1.0054782 0 0 0 18.21875 35.75 A 1.0001 1.0001 0 0 0 18.40625 35.6875 A 1.0054782 1.0054782 0 0 0 18.5 35.625 A 1.0001 1.0001 0 0 0 19 34.84375 A 1.0054782 1.0054782 0 0 0 19 34.8125 A 1.0001 1.0001 0 0 0 19 34.75 A 1.0054782 1.0054782 0 0 0 19 34.625 L 19 16.4375 A 1.0063276 1.0063276 0 0 0 19 16.125 L 19 10 C 19 8.8833339 19.883334 8 21 8 z" overflow="visible" font-family="Sans"/>
</svg>
